#!OML:ASF \\Waltz\H\Terrain\Patient Classification 1\Animal2\Wednesday\Animal2.ASF
:FULLY-SPECIFIED
:DEGREES
3162
root 12.9425 16.6662 -3.69009 10.6012 12.2207 -5.39178
lowerback 8.26089 -4.92036 0.900108
upperback -5.38425 -6.13709 4.12318
thorax -10.0293 -2.86623 4.94563
lowerneck 13.7669 18.0983 20.5347
upperneck -17.9533 24.7551 -34.4768
head 0.171101 14.0882 -13.9164
rclavicle -3.17434e-014 -3.54831e-014
rhumerus 2.17433 -32.958 -5.90279
rradius 27.2432
rwrist 22.8505
rhand -19.1981 20.7201
rfingers 7.12502
rthumb 7.1139 -9.14034
lclavicle -3.17434e-014 -3.54831e-014
lhumerus -18.7097 -51.9422 60.3719
lradius 66.3136
lwrist 79.07
lhand -34.6466 42.5795
lfingers 7.12502
lthumb -7.80368 72.4155
rfemur -35.5703 -12.5869 28.6328
rtibia 54.583
rfoot -31.3336 -8.77442
rtoes 6.67403
lfemur -34.312 27.5396 -18.9247
ltibia 59.7888
lfoot -33.5398 1.68986
ltoes -3.12489
3163
root 12.9579 16.6096 -3.6855 10.7232 12.085 -5.07997
lowerback 8.43789 -4.90494 0.663347
upperback -5.27452 -6.15202 4.04183
thorax -9.99434 -2.8616 5.00079
lowerneck 13.7987 18.1562 20.5189
upperneck -18.4037 24.7468 -34.6863
head 0.0783912 14.1191 -14.0183
rclavicle 4.55776e-014 -2.59414e-014
rhumerus 2.27418 -33.5929 -5.8519
rradius 27.2895
rwrist 23.1164
rhand -19.175 20.5329
rfingers 7.12502
rthumb 7.13618 -9.32677
lclavicle 4.55776e-014 -2.59414e-014
lhumerus -19.2342 -52.6335 61.1336
lradius 66.7802
lwrist 79.3111
lhand -33.17 41.7663
lfingers 7.12502
lthumb -6.37838 71.6503
rfemur -36.1583 -12.6272 28.2882
rtibia 55.5928
rfoot -31.7164 -8.95484
rtoes 5.92653
lfemur -34.9442 27.703 -19.2786
ltibia 61.0377
lfoot -33.2649 0.53527
ltoes -1.30274
3164
root 12.9795 16.5486 -3.67807 10.7329 11.9374 -5.02722
lowerback 8.71323 -4.94801 0.732209
upperback -5.21515 -6.19261 4.06008
thorax -10.0947 -2.88122 5.01569
lowerneck 14.1195 18.1639 20.5582
upperneck -19.0181 24.6836 -35.1311
head -0.0694916 14.1665 -14.2737
rclavicle 6.19214e-014 1.21259e-014
rhumerus 2.52959 -33.8543 -5.94741
rradius 27.5132
rwrist 22.945
rhand -19.241 20.5825
rfingers 7.12502
rthumb 7.07256 -9.27933
lclavicle 6.19214e-014 1.21259e-014
lhumerus -20.2449 -53.1694 62.2053
lradius 67.3719
lwrist 79.1255
lhand -31.0804 40.8832
lfingers 7.12502
lthumb -4.36081 70.8183
rfemur -36.6401 -12.6474 28.1732
rtibia 56.5533
rfoot -31.9298 -9.34184
rtoes 4.70471
lfemur -35.5799 28.0137 -19.3219
ltibia 62.4434
lfoot -33.0418 0.686903
ltoes -4.72776
3165
root 13.005 16.4883 -3.67232 10.6131 11.8807 -5.29574
lowerback 9.13916 -5.02912 1.25099
upperback -5.19326 -6.21191 4.11317
thorax -10.3746 -2.91323 4.83974
lowerneck 14.5263 18.157 20.5213
upperneck -19.6147 24.5976 -35.4921
head -0.260223 14.2056 -14.514
rclavicle -3.62409e-014 2.15681e-014
rhumerus 2.80633 -33.8946 -6.04271
rradius 27.764
rwrist 22.5924
rhand -19.3175 20.3989
rfingers 7.12502
rthumb 6.99871 -9.46541
lclavicle -3.62409e-014 2.15681e-014
lhumerus -21.5452 -53.9595 63.4142
lradius 68.129
lwrist 79.0805
lhand -28.9616 40.9127
lfingers 7.12502
lthumb -2.31459 70.8799
rfemur -37.0286 -12.7448 28.3635
rtibia 57.4358
rfoot -32.0765 -9.50847
rtoes 4.26175
lfemur -36.2096 28.3374 -18.9544
ltibia 63.9606
lfoot -32.8249 0.178487
ltoes -5.33101
3166
root 13.0285 16.4314 -3.66493 10.5634 11.7844 -5.34641
lowerback 9.48929 -5.04086 1.54934
upperback -5.17841 -6.17819 4.04957
thorax -10.6093 -2.91159 4.64193
lowerneck 14.9328 18.1389 20.6037
upperneck -20.0453 24.5591 -35.74
head -0.396921 14.2472 -14.71
rclavicle 6.07101e-014 -3.08116e-015
rhumerus 2.61884 -33.5974 -5.75614
rradius 28.1036
rwrist 22.053
rhand -19.6465 20.6938
rfingers 7.12502
rthumb 6.68111 -9.18082
lclavicle 6.07101e-014 -3.08116e-015
lhumerus -22.7056 -55.2253 64.4973
lradius 68.9254
lwrist 80.0296
lhand -28.2828 38.8896
lfingers 7.12502
lthumb -1.65906 68.8629
rfemur -37.391 -12.8078 28.3164
rtibia 58.2023
rfoot -32.3425 -9.35331
rtoes 5.02055
lfemur -36.8814 28.659 -18.8231
ltibia 65.4487
lfoot -32.3548 -0.573194
ltoes -4.85963
3167
root 13.0536 16.3714 -3.65207 10.5497 11.6661 -5.21974
lowerback 9.67773 -5.00962 1.66204
upperback -5.09652 -6.1281 3.90223
thorax -10.6615 -2.89901 4.42663
lowerneck 15.044 18.1114 20.8648
upperneck -20.1801 24.5644 -35.9736
head -0.366746 14.2709 -14.8445
rclavicle -3.60297e-014 -3.46879e-014
rhumerus 2.23075 -33.4352 -5.37365
rradius 28.5072
rwrist 21.6319
rhand -20.2905 21.27
rfingers 7.12502
rthumb 6.05935 -8.62334
lclavicle -3.60297e-014 -3.46879e-014
lhumerus -23.684 -56.7024 65.3126
lradius 69.9157
lwrist 81.3358
lhand -25.4542 45.6805
lfingers 7.12502
lthumb 1.07289 75.6576
rfemur -37.74 -12.9001 28.0728
rtibia 58.9918
rfoot -32.706 -9.39492
rtoes 4.39756
lfemur -37.5437 29.1329 -18.8793
ltibia 66.9892
lfoot -31.639 -1.9332
ltoes -2.97868
3168
root 13.0854 16.3506 -3.63545 10.4897 11.5992 -5.21523
lowerback 9.77653 -5.01825 1.97289
upperback -4.8849 -6.10763 3.7692
thorax -10.5342 -2.91862 4.10127
lowerneck 14.6963 18.1317 20.8968
upperneck -20.1954 24.538 -36.0727
head -0.294664 14.243 -14.8343
rclavicle -4.40184e-014 1.36167e-014
rhumerus 2.07741 -33.5388 -5.21488
rradius 28.922
rwrist 20.8949
rhand -20.6422 20.9294
rfingers 7.12502
rthumb 5.71984 -8.97342
lclavicle -4.40184e-014 1.36167e-014
lhumerus -24.4989 -58.3059 65.8552
lradius 71.2908
lwrist 83.2454
lhand -28.0639 37.5291
lfingers 7.12502
lthumb -1.44763 67.5039
rfemur -37.8556 -13.0762 27.935
rtibia 59.6135
rfoot -32.962 -9.69442
rtoes 2.20925
lfemur -38.0511 29.6957 -18.817
ltibia 68.4039
lfoot -30.6576 -3.66403
ltoes 0.667627
3169
root 13.1152 16.283 -3.62976 10.4434 11.5439 -5.33895
lowerback 9.97027 -5.08744 2.37797
upperback -4.75156 -6.13981 3.72579
thorax -10.5499 -2.96169 3.84928
lowerneck 14.6215 18.1425 20.8381
upperneck -20.4184 24.4739 -36.2488
head -0.334334 14.2338 -14.9074
rclavicle 1.50331e-015 1.03865e-014
rhumerus 2.07524 -33.0185 -4.99713
rradius 29.3184
rwrist 19.5263
rhand -20.7025 20.2751
rfingers 7.12502
rthumb 5.66162 -9.62927
lclavicle 1.50331e-015 1.03865e-014
lhumerus -25.3732 -59.2694 66.461
lradius 72.0135
lwrist 82.3402
lhand -22.6324 41.25
lfingers 7.12502
lthumb 3.79806 71.1959
rfemur -38.2225 -13.1744 27.967
rtibia 60.3879
rfoot -32.9516 -10.1174
rtoes 0.667571
lfemur -38.9662 30.1656 -18.6506
ltibia 70.1337
lfoot -29.7056 -4.51527
ltoes 1.1207
3170
root 13.1404 16.2215 -3.62003 10.5058 11.5154 -5.46234
lowerback 10.0846 -5.1799 2.67916
upperback -4.69224 -6.21495 3.73299
thorax -10.583 -3.01636 3.71473
lowerneck 14.9151 18.161 20.8358
upperneck -20.9139 24.4301 -36.6126
head -0.459727 14.2845 -15.1249
rclavicle 9.48979e-014 2.56184e-014
rhumerus 2.23601 -32.7466 -4.80559
rradius 29.4753
rwrist 18.939
rhand -20.633 20.3221
rfingers 7.12502
rthumb 5.72869 -9.58043
lclavicle 9.48979e-014 2.56184e-014
lhumerus -26.884 -60.0767 67.534
lradius 73.1929
lwrist 82.3949
lhand -22.2394 40.0598
lfingers 7.12502
lthumb 4.17762 69.9986
rfemur -38.6674 -13.2713 28.0455
rtibia 61.0744
rfoot -32.9529 -10.0852
rtoes 1.0279
lfemur -40.0647 30.6211 -18.5318
ltibia 71.8456
lfoot -28.7821 -4.58706
ltoes -1.23147
3171
root 13.1649 16.1735 -3.60374 10.6205 11.5045 -5.47319
lowerback 10.0027 -5.28601 2.86685
upperback -4.57529 -6.34123 3.69637
thorax -10.4263 -3.09433 3.57679
lowerneck 15.0386 18.248 20.6742
upperneck -21.2972 24.4445 -36.8083
head -0.565917 14.3419 -15.217
rclavicle -6.38394e-014 3.6303e-014
rhumerus 2.66218 -33.3538 -4.97167
rradius 29.4908
rwrist 19.2836
rhand -20.5412 20.6299
rfingers 7.12502
rthumb 5.81733 -9.2702
lclavicle -6.38394e-014 3.6303e-014
lhumerus -28.351 -60.9546 68.408
lradius 74.6541
lwrist 83.0885
lhand -23.1524 37.371
lfingers 7.12502
lthumb 3.29597 67.3253
rfemur -39.0685 -13.3893 27.9889
rtibia 61.7365
rfoot -33.1832 -9.77711
rtoes 1.75971
lfemur -41.0981 31.1493 -18.5359
ltibia 73.4953
lfoot -27.8267 -4.6064
ltoes -3.19177
3172
root 13.1935 16.137 -3.58183 10.6365 11.4477 -5.45603
lowerback 10.0157 -5.37295 3.05435
upperback -4.47381 -6.44042 3.61672
thorax -10.35 -3.15841 3.40045
lowerneck 14.967 18.3833 20.4138
upperneck -21.3551 24.5497 -36.7068
head -0.598741 14.396 -15.1164
rclavicle -8.23761e-014 -8.92046e-015
rhumerus 2.94412 -33.6499 -5.05927
rradius 29.6476
rwrist 19.4008
rhand -20.5421 20.7121
rfingers 7.12502
rthumb 5.81644 -9.18808
lclavicle -8.23761e-014 -8.92046e-015
lhumerus -29.5566 -61.8163 69.0753
lradius 75.7453
lwrist 82.6966
lhand -21.8253 36.4579
lfingers 7.12502
lthumb 4.57742 66.3884
rfemur -39.2505 -13.4741 27.8524
rtibia 62.2557
rfoot -33.3761 -9.67668
rtoes 2.36891
lfemur -41.9241 31.8294 -18.481
ltibia 75.062
lfoot -26.6674 -4.87497
ltoes -4.87986
